<svg width="99" height="86" viewBox="0 0 99 86" fill="none" xmlns="http://www.w3.org/2000/svg">
<g clip-path="url(#clip0_161_4065)">
<path fill-rule="evenodd" clip-rule="evenodd" d="M90.0055 54.747C84.9007 72.6002 68.6375 85.61 49.36 85.61C30.0959 85.61 13.842 72.5911 8.72521 54.7701L3.37 54.3C1.47 54.08 0 51.91 0 49.3V40.76C0 38.14 1.47 35.98 3.37 35.8L7.67879 35.4038C11.1407 15.2828 28.4826 0 49.36 0C70.2355 0 87.5763 15.2881 91.0403 35.4012L92.23 35.51L92.2306 35.5132L95.35 35.8V35.79C97.25 35.97 98.72 38.13 98.72 40.75V49.31C98.72 51.91 97.25 54.08 95.35 54.25L90.0055 54.747ZM74.45 63.97C58.2 69.63 40.51 69.63 24.26 63.97C19.53 62.38 16.45 58.44 16.45 54.1V33.57C16.45 28.4 21.61 24.21 27.98 24.21H70.72C77.09 24.21 82.25 28.4 82.25 33.57V54.09C82.25 58.44 79.17 62.38 74.44 63.97H74.45ZM34.35 14.5C38.49 13.05 41.33 10.37 40.69 8.51C40.06 6.64 36.18 6.31 32.04 7.76C27.9 9.21 25.07 11.89 25.7 13.76C26.33 15.63 30.21 15.95 34.35 14.5Z" fill="#98ABBA"/>
<path d="M28.8 38.18L34.67 44.72L28.8 50.07" stroke="#98ABBA" stroke-width="2.65" stroke-linecap="round" stroke-linejoin="round"/>
<path d="M38.5 53.05H47.9" stroke="#98ABBA" stroke-width="2.65" stroke-linecap="round" stroke-linejoin="round"/>
</g>
<defs>
<clipPath id="clip0_161_4065">
<rect width="98.72" height="85.63" fill="white"/>
</clipPath>
</defs>
</svg>
