<svg width="99" height="87" viewBox="0 0 99 87" fill="none" xmlns="http://www.w3.org/2000/svg">
<g clip-path="url(#clip0_148_2957)">
<path fill-rule="evenodd" clip-rule="evenodd" d="M90.0055 55.5498C84.9007 73.4029 68.6375 86.4128 49.36 86.4128C30.0959 86.4128 13.842 73.3939 8.72521 55.5728L3.37 55.1028C1.47 54.8828 0 52.7128 0 50.1028V41.5628C0 38.9428 1.47 36.7828 3.37 36.6028L7.67879 36.2066C11.1407 16.0855 28.4826 0.802786 49.36 0.802786C70.2355 0.802786 87.5763 16.0909 91.0403 36.204L92.23 36.3128L92.2306 36.3159L95.35 36.6028V36.5928C97.25 36.7728 98.72 38.9328 98.72 41.5528V50.1128C98.72 52.7128 97.25 54.8828 95.35 55.0528L90.0055 55.5498ZM74.45 64.7728C58.2 70.4328 40.51 70.4328 24.26 64.7728C19.53 63.1828 16.45 59.2428 16.45 54.9028V34.3728C16.45 29.2028 21.61 25.0128 27.98 25.0128H70.72C77.09 25.0128 82.25 29.2028 82.25 34.3728V54.8928C82.25 59.2428 79.17 63.1828 74.44 64.7728H74.45ZM34.35 15.3028C38.49 13.8528 41.33 11.1728 40.69 9.31279C40.06 7.44279 36.18 7.11279 32.04 8.56279C27.9 10.0128 25.07 12.6928 25.7 14.5628C26.33 16.4328 30.21 16.7528 34.35 15.3028Z" fill="#212121"/>
<path d="M28.8 38.9828L34.67 45.5228L28.8 50.8728" stroke="#212121" stroke-width="2.65" stroke-linecap="round" stroke-linejoin="round"/>
<path d="M38.5 53.8528H47.9" stroke="#212121" stroke-width="2.65" stroke-linecap="round" stroke-linejoin="round"/>
</g>
<defs>
<clipPath id="clip0_148_2957">
<rect width="98.72" height="85.63" fill="white" transform="translate(0 0.802786)"/>
</clipPath>
</defs>
</svg>
