<svg width="100" height="87" viewBox="0 0 100 87" fill="none" xmlns="http://www.w3.org/2000/svg">
<g clip-path="url(#clip0_148_2876)">
<path fill-rule="evenodd" clip-rule="evenodd" d="M95.8736 36.6028L86.3036 35.7228V55.9428L95.8736 55.0528C97.7736 54.8828 99.2436 52.7128 99.2436 50.1128V41.5528C99.2436 38.9328 97.7736 36.7728 95.8736 36.5928V36.6028Z" fill="#F99D78"/>
<path fill-rule="evenodd" clip-rule="evenodd" d="M86.3036 46.8628V55.9328L91.7636 55.4328C93.4836 49.2028 93.8236 42.6828 92.7536 36.3128L86.3036 35.7228V46.8728V46.8628Z" fill="#FF6C37" fill-opacity="0.3"/>
<path fill-rule="evenodd" clip-rule="evenodd" d="M3.89359 36.6028L13.4636 35.7228V55.9428L3.89359 55.1028C1.99359 54.8828 0.52359 52.7128 0.52359 50.1028V41.5628C0.52359 38.9428 1.99359 36.7828 3.89359 36.6028Z" fill="#F99D78"/>
<path fill-rule="evenodd" clip-rule="evenodd" d="M13.4536 46.8628V55.9328L7.9936 55.4328C6.2736 49.2128 5.9436 42.7028 7.0036 36.3428L13.4536 35.7528V46.8728V46.8628Z" fill="#FF6C37" fill-opacity="0.3"/>
<path fill-rule="evenodd" clip-rule="evenodd" d="M92.1936 43.6028C92.1936 67.2928 73.2536 86.4128 49.8836 86.4128C26.5136 86.4128 7.57358 67.2528 7.57358 43.6028C7.57358 19.9528 26.5136 0.802786 49.8836 0.802786C73.2536 0.802786 92.1936 19.9628 92.1936 43.6028Z" fill="#FF6C37"/>
<path fill-rule="evenodd" clip-rule="evenodd" d="M49.8836 33.3828C20.5036 33.3828 13.4536 63.0628 8.1236 50.5128C11.6036 73.5728 33.1236 89.4428 56.1936 85.9628C74.5036 83.1928 88.8736 68.8228 91.6436 50.5128C85.7336 64.2628 79.2636 33.3828 49.8836 33.3828Z" fill="#FF6C37" fill-opacity="0.2"/>
<path fill-rule="evenodd" clip-rule="evenodd" d="M49.8836 83.2828C39.3136 82.7428 25.7936 79.1128 16.0336 69.2828C23.8936 80.1128 36.4936 86.4928 49.8836 86.4228C63.1136 86.3628 75.5436 80.1328 83.5136 69.5728C73.9636 80.9028 60.4536 83.2828 49.8836 83.2828Z" fill="#FF6C37" fill-opacity="0.3"/>
<path fill-rule="evenodd" clip-rule="evenodd" d="M75.4336 66.5028C58.8836 72.2328 40.8936 72.2328 24.3336 66.5028C19.5236 64.8928 16.4336 60.8928 16.4336 56.4828V35.6928C16.4336 30.4628 21.6936 26.2028 28.1836 26.2028H71.6036C78.0936 26.2028 83.3536 30.4528 83.3536 35.6928V56.4828C83.3836 60.8928 80.2436 64.8928 75.4336 66.5028Z" fill="#EE8751"/>
<path fill-rule="evenodd" clip-rule="evenodd" d="M24.3736 66.4128C27.8036 67.4828 31.2936 68.3528 34.8236 69.0028C38.3436 69.6828 41.9136 70.1028 45.4936 70.2628C49.0736 70.4428 52.6536 70.3828 56.2236 70.0928C59.7936 69.7528 63.3336 69.2028 66.8336 68.4328C68.5836 68.0528 70.3036 67.5828 72.0336 67.1128L74.6036 66.3128C75.4536 66.0628 76.2736 65.7328 77.0636 65.3228C80.2936 63.8028 82.5236 60.7428 82.9836 57.2128L83.2736 35.3928C83.2736 35.3328 83.3236 35.2828 83.3836 35.2828C83.4436 35.2828 83.4936 35.3328 83.4936 35.3928C83.5836 42.6928 83.7436 49.9328 83.7136 57.2828C83.5536 59.1728 82.8636 60.9828 81.7436 62.5028C80.6136 64.0028 79.1536 65.2328 77.4836 66.0728C76.6636 66.4828 75.8036 66.8128 74.9136 67.0628L72.2936 67.9328C70.5436 68.4228 68.8036 68.9228 67.0336 69.2928C63.5036 70.1028 59.9136 70.6528 56.3036 70.9628C52.6936 71.2428 49.0636 71.2728 45.4436 71.0528C41.8336 70.8128 38.2436 70.3128 34.7036 69.5628C31.1736 68.7928 27.6936 67.8028 24.2936 66.6028C24.2436 66.5828 24.2136 66.5328 24.2336 66.4728C24.2436 66.4228 24.3036 66.3928 24.3536 66.4028C24.3536 66.4028 24.3736 66.4028 24.3836 66.4128H24.3736Z" fill="#E89873" fill-opacity="0.3"/>
<g opacity="0.3">
<path d="M16.9836 34.3628C16.9836 29.1928 22.1436 25.0028 28.5136 25.0028H34.3136" stroke="#E89873" stroke-width="1.77" stroke-linecap="round"/>
</g>
<path fill-rule="evenodd" clip-rule="evenodd" d="M74.9736 64.7728C58.7236 70.4328 41.0336 70.4328 24.7836 64.7728C20.0536 63.1828 16.9736 59.2428 16.9736 54.9028V34.3728C16.9736 29.2028 22.1336 25.0128 28.5036 25.0128H71.2436C77.6136 25.0128 82.7736 29.2028 82.7736 34.3728V54.8928C82.7736 59.2428 79.6936 63.1828 74.9636 64.7728H74.9736Z" fill="#353535"/>
<path fill-rule="evenodd" clip-rule="evenodd" d="M74.9736 61.3528C58.7236 67.0028 41.0436 67.0028 24.7836 61.3528C20.0536 59.7628 16.9736 55.8228 16.9736 51.4828V54.9028C16.9736 59.2528 20.0536 63.1928 24.7836 64.7728C41.0336 70.4228 58.7136 70.4228 74.9736 64.7728C79.7036 63.1728 82.7836 59.2328 82.7836 54.9028V51.4728C82.7836 55.8228 79.7036 59.7628 74.9736 61.3528Z" fill="#353535" fill-opacity="0.3"/>
<path opacity="0.8" d="M29.3236 38.9828L35.1936 45.5228L29.3236 50.8728" stroke="white" stroke-width="2.65" stroke-linecap="round" stroke-linejoin="round"/>
<path opacity="0.8" d="M39.0236 53.8528H48.4236" stroke="white" stroke-width="2.65" stroke-linecap="round" stroke-linejoin="round"/>
<path fill-rule="evenodd" clip-rule="evenodd" d="M83.3036 17.3828C69.2636 -1.08721 42.9236 -4.66722 24.4636 9.37278C21.4436 11.6628 18.7536 14.3628 16.4636 17.3728C25.5736 12.8628 37.1936 10.1428 49.8936 10.1428C62.5936 10.1428 74.2036 12.8528 83.3236 17.3728L83.3036 17.3828Z" fill="#E89873" fill-opacity="0.3"/>
<path fill-rule="evenodd" clip-rule="evenodd" d="M41.2136 9.31279C41.8536 11.1728 39.0136 13.8528 34.8736 15.3028C30.7336 16.7528 26.8536 16.4328 26.2236 14.5628C25.5936 12.6928 28.4236 10.0128 32.5636 8.56279C36.7036 7.11279 40.5836 7.44279 41.2136 9.31279Z" fill="white" fill-opacity="0.3"/>
</g>
<defs>
<clipPath id="clip0_148_2876">
<rect width="98.72" height="85.63" fill="white" transform="translate(0.52359 0.802786)"/>
</clipPath>
</defs>
</svg>
